<svg xmlns="http://www.w3.org/2000/svg" viewBox="0 0 100 114.21625">
    <path fill="#010101" d="M98.946 37.689c1.182-3.906 1.086-7.146-.188-9.625-1.148-2.236-2.917-3.579-4.562-4.656-1.155-4.31-4.223-7.962-9.125-9.406-1.34-2.132-2.926-3.993-4.938-5.344-1.994-1.34-4.422-2.066-7.031-2.093C68.527 2.39 63.515.18 58.447.003c-.18-.007-.352.001-.531 0-2.705-.014-5.439.584-8.094 1.688-2.847-.8-6.851-1.814-11.687.5-3.042-.514-6.119.522-8.688 2.656-1.926-.228-3.755.104-5.25.844-1.662.823-2.898 2.01-4 3.187-5.395 1.732-8.77 4.235-10.812 7.031-2.003 2.741-2.828 5.393-3.875 7.562-1.929 1.46-3.754 3.337-4.719 6.031-1.035 2.891-1.06 6.454-.062 11.031-.626 5.734.439 10.399 3.5 13.438 2.904 2.883 7.152 3.768 11.875 3.375 3.562 2.33 8.167 2.476 13.156 1.688 2.704 1.859 5.833 3.366 9.531 4.155 1.049 3.191 1.77 6.51 3.125 9.688 1.535 3.602 4.196 7.046 8.843 8.906 2.521 1.01 4.688 3.234 6.031 5.031.007.009.024.022.031.031.771 1.238 1.223 2.229 2.469 3.188 1.309 1.006 2.834 1.195 4.562 1.312 4.545.289 8.046-1.693 10.655-3.812V87.5c.117-.095.246-.174.344-.281.414-.455.598-.982.688-1.375.179-.786.092-1.25-.031-1.844-.246-1.189-.824-2.812-2.219-5.875-.077-.169-.14-.352-.219-.531 1.2-.03 2.371-.243 3.5-.531 4.076-1.04 7.664-3.288 10.062-5.062 3.867-2.861 6.479-5.066 8.062-7.406 1.807-2.671 2.562-7.659 1.312-10.593.435-.353.839-.732 1.218-1.156 3.163-3.538 3.455-8.817 1.722-15.157zM64.229 85.782c-1.098-.076-1.434-.143-1.5-.156.047.025-.387-.533-1.281-1.938-.035-.058-.086-.102-.125-.156-1.695-2.273-4.438-5.292-8.469-6.906-3.241-1.297-4.549-3.121-5.75-5.938-.81-1.898-1.511-4.301-2.281-6.875 1.01-.004 2.045-.08 3.125-.188 1.933.702 4.306 1.879 7.438 2 1.661.064 4.371-.923 6.469-1.906-.244 3.453.369 6.955 2.375 9.656a10.637 10.637 0 0 0 1.78 1.906 119.13 119.13 0 0 0 2.188 5.125c.86 1.89 1.248 2.997 1.5 3.75-1.637 1.145-3.21 1.766-5.469 1.626zm25.875-24.406c-1.021 1.429-3.154 3.448-6.812 6.155-2.014 1.49-5.257 3.424-8.125 4.156-1.434.365-2.726.425-3.75.188-4.131-1.368-4.903-7.719-3.438-11.249 1.836-.663 3.537-1.793 5.156-3.312 1.164.561 2.386 1.052 3.812 1.219 1.947.229 4.14-.276 6.094-1.531 2.82.144 5.402-.02 7.688-.562.699 1.624.679 3.392-.625 4.936zm2.906-12.25c-1.379 1.543-4.377 2.541-9.344 2.344-.323-2.186-.406-3.264-.375-3.469.016-.104-.023-.031.062-.156s.339-.409.719-.844a1.898 1.898 0 0 0-.141-2.696 1.932 1.932 0 0 0-2.766.197c-.354.404-.652.727-.969 1.188s-.621 1.113-.719 1.75c-.195 1.272.066 2.379.406 4.656.002.105.012.209.031.312-.857.579-1.502.689-2.312.594-.966-.113-2.184-.66-3.5-1.469-1.121-.691-2.759-.456-3.625.531-2.187 2.492-3.506 3.341-5.343 3.594a2.224 2.224 0 0 0-.094-.156c-.565-1.075-.809-1.627-.875-1.969s-.054-.73.281-1.875a1.907 1.907 0 0 0-1.274-2.386 1.929 1.929 0 0 0-.632-.083 1.922 1.922 0 0 0-1.812 1.406c-.407 1.393-.562 2.558-.344 3.688s.697 1.949 1.25 3c.02.043.04.084.062.125-2.683 2.314-4.466 2.719-6.094 2.656-1.49-.058-3.159-.734-5.094-1.438a1.89 1.89 0 0 0 0-.531c-.397-3.291-.159-4.718.188-5.438.346-.72 1.041-1.2 2.375-2.375a1.9 1.9 0 0 0 .265-2.688 1.937 1.937 0 0 0-1.671-.688 1.928 1.928 0 0 0-1.156.5c-1.125.991-2.466 1.834-3.312 3.594-.814 1.692-.938 3.839-.562 7.188-6.685.527-10.909-1.276-14.781-4.125.016-.082.026-.166.031-.25.19-1.729.526-2.121.812-2.375s.984-.525 2.219-1.062a1.903 1.903 0 0 0 .99-2.515 1.926 1.926 0 0 0-2.522-.986c-.968.422-2.108.677-3.25 1.688-1.142 1.01-1.819 2.633-2.062 4.844a1.803 1.803 0 0 0-.031.219c-4.448.641-7.589.174-9.343-1.25a2.869 2.869 0 0 0-2.125-.625c-4.208.535-6.86-.216-8.375-1.719s-2.463-4.321-1.844-9.312c.015-.118.032-.225.031-.344.33-.113.654-.188.938-.219.849-.093 1.637.061 2.938.875a1.936 1.936 0 0 0 2.688-.434 1.9 1.9 0 0 0-.626-2.785c-1.353-.847-2.735-1.354-4.093-1.469a6.937 6.937 0 0 0-1.344 0c-.393.043-.783.152-1.156.25-.28-2.396-.074-4.053.344-5.219.436-1.218 1.114-2.097 2.156-2.969 1.077.875 2.789 2.271 5.25 2.969 1.677.476 3.677.602 5.969.156.136.004.272-.007.406-.031.336-.065.662-.16.969-.281.01-.002-.01-.028 0-.031a19.09 19.09 0 0 0 2.031-.688c3.072-1.255 5.064-1.105 6.468-.625s2.292 1.369 2.875 2.062a1.937 1.937 0 0 0 2.713.253 1.9 1.9 0 0 0 .256-2.691c-.798-.95-2.268-2.455-4.594-3.25-1.747-.597-3.963-.759-6.531-.156.103-1.384-.022-2.585 0-2.906a1.915 1.915 0 0 0-2-2.062 1.917 1.917 0 0 0-1.844 1.812c-.091 1.298.12 2.549-.031 3.5-.076.476-.247.773-.375.938-.059.076-.103.164-.188.219-2.154.603-3.753.465-5.062.094-1.609-.457-2.799-1.336-3.812-2.156 1.173-2.456 1.917-4.604 3.187-6.343 1.442-1.974 3.583-3.764 8.625-5.25.496-.146.937-.43 1.281-.812 1.044-1.161 2.037-2.023 2.875-2.438.666-.33 1.234-.487 2.094-.344.614 1.256 1.532 2.576 2.25 4.094.006.073.017.146.031.219.133.648-.008.83-.469 1.281s-1.306.891-2.031 1.188a1.91 1.91 0 0 0-1.03 2.51 1.937 1.937 0 0 0 2.53 1.021c.942-.385 2.175-.947 3.25-2 .624.534 1.312.877 1.969 1.031 1.405.329 2.641.134 3.094.125a1.92 1.92 0 0 0 1.997-1.835 1.916 1.916 0 0 0-2.059-1.977c-.897.018-1.669.076-2.125-.031s-.543-.004-.781-.844c-.695-2.459-2.024-4.529-2.75-5.688 1.965-1.905 3.289-2.219 5-1.688a2.833 2.833 0 0 0 2.219-.25c3.448-1.969 5.104-1.515 7.562-.75-.075.936-.017 2.014.125 3.281.288 2.563.917 5.789 1.75 8.719.12.423-.029 1.9-.75 3-.72 1.1-1.714 1.871-3.344 1.875a1.918 1.918 0 0 0-2.026 1.802 1.914 1.914 0 0 0 2.026 2.01c2.991-.007 5.321-1.682 6.594-3.625.952-1.454 1.469-3.019 1.438-4.562.572.153 1.125.273 1.594.344a1.925 1.925 0 0 0 2.188-1.612 1.913 1.913 0 0 0-1.625-2.169c-.702-.106-1.703-.361-2.375-.688s-.722-.541-.719-.5a1.902 1.902 0 0 0-.219-.719c-.318-1.541-.578-3.061-.719-4.312a15.02 15.02 0 0 1-.094-2.375c.069-.078.132-.162.188-.25 2.396-1.097 4.652-1.66 6.875-1.625 3.678.059 7.266 1.795 11.155 5.468a2.073 2.073 0 0 0-.062.125c-.402.961-1.765 3.696-4.468 4.938a1.906 1.906 0 0 0-.936 2.541 1.932 1.932 0 0 0 2.56.928c4.146-1.904 5.875-5.667 6.406-6.938.04-.102.071-.206.094-.312 1.536.003 2.725.415 3.875 1.188 1.045.702 2.08 1.756 3.031 3.156l-.094.156a2.019 2.019 0 0 0-.188.312s-.208.477-.406.906c-.117.234-.245.485-.344.719-.342.651-.77 1.378-1.281 2.031-.605.774-1.287 1.326-1.75 1.5s-.676.247-1.438-.312a1.942 1.942 0 0 0-2.7.416 1.906 1.906 0 0 0 .419 2.678c1.596 1.172 3.58 1.383 5.094.812.59-.223 1.095-.559 1.562-.906.398 1.002.953 1.998 1.625 3a1.933 1.933 0 0 0 2.63.697 1.9 1.9 0 0 0 .557-2.821c-.988-1.474-1.458-2.527-1.562-3.406-.1-.842.072-1.705.812-3.031 4.098.899 5.377 2.778 6.031 6.437a2.776 2.776 0 0 0 1.25 1.844c1.76 1.109 3.006 2.041 3.562 3.125.475.924.74 2.258.062 4.781-.795.506-2.248.728-3.688.625-.781-.056-1.542-.186-2.125-.344s-1.064-.434-.938-.344a1.945 1.945 0 0 0-2.7.447 1.909 1.909 0 0 0 .45 2.678c.687.486 1.322.68 2.156.906s1.82.394 2.875.469c1.18.084 2.484.066 3.75-.25 1.334 5.115.769 8.004-.622 9.562z"/>
    <path fill="#010101" d="M32.924 37.686l-.056.055c-1.327 1.31-3.536 2.962-4.951 3.291-.708.165-1.056.119-1.463-.179-.408-.297-1.021-1.079-1.463-2.853a1.923 1.923 0 0 0-2.005-1.451 1.915 1.915 0 0 0-1.784 1.819c-.106 2.291-.56 3.008-.982 3.42-.422.412-1.212.665-2.436 1.302-1.167.609-2.603 1.491-3.588 3.112-.563.895-.289 2.072.613 2.631s2.089.285 2.652-.609l.032-.053c.472-.777 1.098-1.186 2.085-1.7.782-.407 2.098-.758 3.337-1.968.295-.288.563-.623.802-.994.151.137.287.297.451.417 1.413 1.03 3.167 1.163 4.62.825 2.906-.675 5.236-2.765 6.796-4.305a1.899 1.899 0 0 0 .061-2.699 1.934 1.934 0 0 0-2.721-.061zm45.258 2.497a2.925 2.925 0 0 0-.132-.009c-.438-.029-1.544-.283-2.165-.577-.057-.026-.072-.039-.09-.049.48-1.375.503-3.067-.281-4.613-.878-1.731-2.551-3.212-5.152-4.623a1.932 1.932 0 0 0-.922-.249 1.917 1.917 0 0 0-1.951 1.882 1.904 1.904 0 0 0 1.029 1.717c2.193 1.19 3.192 2.271 3.559 2.992.365.721.312 1.135.01 1.799-.604 1.329-2.773 3-4.06 3.837a1.9 1.9 0 0 0-.558 2.644 1.935 1.935 0 0 0 2.665.553l.008-.005c.849-.552 2.273-1.425 3.538-2.714.181.103.369.192.551.278a10.04 10.04 0 0 0 3.568.935 1.92 1.92 0 0 0 2.106-1.71 1.912 1.912 0 0 0-1.723-2.088zm-15.661-4.256a1.682 1.682 0 0 0-.156-.037c-1.359-.325-2.844-.613-3.869-1.372-.383-.283-.744-.608-1.032-1.074-.002-.002.002-.007 0-.01a1.884 1.884 0 0 0-.311-.636c-.287-.75-.436-1.779-.36-3.261a1.915 1.915 0 0 0-2.045-2.028 1.918 1.918 0 0 0-1.805 1.839c-.102 2.017.215 3.721.812 5.1.314 1.434-.182 2.5-.953 3.251-.781.762-1.775.915-2.045.815a1.931 1.931 0 0 0-2.545.956 1.903 1.903 0 0 0 1.202 2.613c2.208.819 4.468-.083 6.084-1.661a7.295 7.295 0 0 0 1.573-2.276c1.726.979 3.479 1.233 4.39 1.451a1.926 1.926 0 0 0 2.38-1.31 1.906 1.906 0 0 0-1.32-2.36z"/>
</svg>
